<?xml version="1.0" encoding="UTF-8"?><svg id="Livello_1" xmlns="http://www.w3.org/2000/svg" xmlns:xlink="http://www.w3.org/1999/xlink" viewBox="0 0 269.71 54.38"><defs><style>.cls-1{fill:none;}.cls-2{fill:url(#Nuovo_campione_sfumatura_4);}.cls-3{fill:#00abc4;}.cls-4{fill:#20284d;}.cls-5,.cls-6{fill:#7ac8d3;}.cls-6,.cls-7{opacity:.5;}.cls-7{fill:#fff;}</style><linearGradient id="Nuovo_campione_sfumatura_4" x1="-7.91" y1="27.19" x2="50.29" y2="27.19" gradientUnits="userSpaceOnUse"><stop offset="0" stop-color="#00abc4"/><stop offset="1" stop-color="#7ac8d3"/></linearGradient></defs><path class="cls-4" d="m112.71,40.33c-.61.5-1.21.99-1.93,1.38-1.27.72-3.03,1.38-5.23,1.38-5.51,0-8.54-2.98-8.54-7.16,0-5.01,3.58-8.54,15.15-8.54,0-2.81-1.65-4.41-4.13-4.41-1.71,0-2.59.72-3.19,1.38-.33.39-.55.88-.66,1.38h-6.33c.61-4.63,4.41-8.54,10.74-8.54,5.73,0,9.92,4.19,9.92,9.92v15.7h-4.68l-1.1-2.48Zm-.55-8.54c-7.44,0-8.81,1.38-8.81,3.58,0,1.38,1.38,2.75,3.3,2.75,3.31,0,5.51-2.15,5.51-5.23v-1.1Z"/><path class="cls-4" d="m153.2,8.65c0-1.93,1.65-3.58,3.58-3.58s3.58,1.65,3.58,3.58-1.65,3.58-3.58,3.58-3.58-1.65-3.58-3.58Z"/><path class="cls-4" d="m165.87,8.1h6.33v34.71h-6.33V8.1Z"/><path class="cls-4" d="m200.85,35.1c-1.32,3.8-5.56,7.99-11.29,7.99-6.83,0-12.67-5.78-12.67-12.95s5.84-12.95,12.67-12.95,12.12,5.23,12.12,12.95c0,.61-.11,1.16-.17,1.65l-.11.83h-17.63c.61,2.48,2.48,4.41,5.78,4.41,1.71,0,2.75-.44,3.58-.94.44-.28.83-.61,1.1-.99h6.61Zm-5.23-6.89c-.61-2.81-2.75-4.96-6.06-4.96s-5.45,2.15-6.06,4.96h12.12Z"/><path class="cls-3" d="m206.36,8.1h6.33v34.71h-6.33V8.1Z"/><path class="cls-3" d="m233.35,40.33c-.61.5-1.21.99-1.93,1.38-1.27.72-3.03,1.38-5.23,1.38-5.51,0-8.54-2.98-8.54-7.16,0-5.01,3.58-8.54,15.15-8.54,0-2.81-1.65-4.41-4.13-4.41-1.71,0-2.59.72-3.19,1.38-.33.39-.55.88-.66,1.38h-6.33c.61-4.63,4.41-8.54,10.74-8.54,5.73,0,9.92,4.19,9.92,9.92v15.7h-4.68l-1.1-2.48Zm-.55-8.54c-7.44,0-8.81,1.38-8.81,3.58,0,1.38,1.38,2.75,3.3,2.75,3.31,0,5.51-2.15,5.51-5.23v-1.1Z"/><path class="cls-3" d="m244.92,8.1h6.33v11.57c.5-.44,1.1-.83,1.76-1.21,1.16-.61,2.7-1.27,4.85-1.27,6.34,0,11.84,5.45,11.84,12.95s-5.51,12.95-11.84,12.95c-2.2,0-3.97-.66-5.23-1.38-.72-.39-1.38-.88-1.93-1.38l-1.1,2.48h-4.68V8.1Zm18.45,22.03c0-4.19-2.75-6.89-6.33-6.89s-6.34,2.7-6.34,6.89,2.75,6.89,6.34,6.89,6.33-2.7,6.33-6.89Z"/><rect class="cls-4" x="153.48" y="17.47" width="6.33" height="25.34"/><path class="cls-4" d="m142.73,17.47l-1.1,2.48c-.61-.5-1.21-.99-1.93-1.38-1.27-.66-3.03-1.38-5.23-1.38-6.39,0-11.57,5.23-11.57,12.39s5.18,12.39,11.57,12.39c2.04,0,3.69-.66,4.85-1.38.66-.39,1.27-.88,1.76-1.38v1.93c0,3.08-2.2,5.23-5.78,5.23-1.93,0-3.08-.61-3.91-1.21,0,0,0,0,0,0l-2.31,5.44c1.57.93,3.59,1.56,6.23,1.56,7.71,0,12.12-4.41,12.12-11.02v-23.69h-4.68Zm-7.44,18.45c-3.36,0-6.06-2.81-6.06-6.33s2.7-6.34,6.06-6.34,6.06,2.81,6.06,6.34-2.81,6.33-6.06,6.33Z"/><path class="cls-7" d="m56.84,5.07c-3.85,0-7.46.98-10.61,2.71,1.39,1.36,2.64,2.88,3.71,4.51,2.11-.98,4.45-1.55,6.93-1.55,9.07,0,16.42,7.35,16.42,16.42s-7.35,16.42-16.42,16.42c-2.47,0-4.8-.56-6.9-1.54-1.08,1.65-2.33,3.17-3.73,4.55,3.15,1.73,6.76,2.71,10.61,2.71,12.21,0,22.12-9.9,22.12-22.12s-9.9-22.12-22.12-22.12Z"/><path class="cls-1" d="m49.96,42.05c2.1.98,4.43,1.54,6.9,1.54,9.07,0,16.42-7.35,16.42-16.42s-7.35-16.42-16.42-16.42c-2.48,0-4.82.57-6.93,1.55,2.81,4.28,4.45,9.4,4.45,14.9s-1.63,10.58-4.42,14.86Z"/><path class="cls-6" d="m56.84,5.07c-3.85,0-7.46.98-10.61,2.71,1.39,1.36,2.64,2.88,3.71,4.51,2.11-.98,4.45-1.55,6.93-1.55,9.07,0,16.42,7.35,16.42,16.42s-7.35,16.42-16.42,16.42c-2.47,0-4.8-.56-6.9-1.54-1.08,1.65-2.33,3.17-3.73,4.55,3.15,1.73,6.76,2.71,10.61,2.71,12.21,0,22.12-9.9,22.12-22.12s-9.9-22.12-22.12-22.12Z"/><path class="cls-5" d="m49.93,12.29c-5.6,2.61-9.49,8.28-9.49,14.87s3.9,12.27,9.52,14.88c2.79-4.27,4.42-9.37,4.42-14.86s-1.64-10.62-4.45-14.9Z"/><path class="cls-2" d="m34.72,27.18c0-8.37,4.65-15.65,11.5-19.41C41.32,2.97,34.6,0,27.19,0,12.17,0,0,12.17,0,27.19s12.17,27.19,27.19,27.19c7.42,0,14.13-2.97,19.04-7.79-6.86-3.76-11.51-11.04-11.51-19.41Z"/></svg>