<?xml version="1.0" encoding="utf-8"?>
<!-- Generator: Adobe Illustrator 27.7.0, SVG Export Plug-In . SVG Version: 6.00 Build 0)  -->
<svg version="1.1" id="Livello_1" xmlns="http://www.w3.org/2000/svg" xmlns:xlink="http://www.w3.org/1999/xlink" x="0px" y="0px"
	 viewBox="0 0 368.5 99.2" style="enable-background:new 0 0 368.5 99.2;" xml:space="preserve">
<style type="text/css">
	.st0{fill:#FFFFFF;}
	.st1{fill:#EB9317;}
	.st2{fill:url(#SVGID_1_);}
	.st3{fill:url(#SVGID_00000083804191482169939810000007052762217409069985_);}
	.st4{fill:url(#SVGID_00000091705146909265696240000000768047577867411333_);}
</style>
<g>
	<path class="st0" d="M241.1,51.9c0,4.7,2.4,8.7,6.1,11.1c1.5-3.4,2.3-7.1,2.3-11.1s-0.8-7.7-2.3-11.1
		C243.5,43.2,241.1,47.3,241.1,51.9z"/>
	<path class="st0" d="M232.1,51.9c0-7.8,4-14.6,10.1-18.6c-5-5.3-12.1-8.7-20-8.7c-15.1,0-27.3,12.2-27.3,27.3
		c0,15.1,12.2,27.3,27.3,27.3c7.9,0,15-3.3,20-8.7C236.1,66.6,232.1,59.7,232.1,51.9z"/>
	<path class="st1" d="M254.2,29.8c-4.4,0-8.6,1.3-12,3.5c2,2.2,3.7,4.7,5,7.5c2-1.3,4.5-2.1,7-2.1c7.2,0,13.1,5.9,13.1,13.1
		c0,7.2-5.9,13.1-13.1,13.1c-2.6,0-5-0.8-7-2.1c-1.2,2.8-2.9,5.3-5,7.5c3.5,2.2,7.6,3.5,12,3.5c12.2,0,22.1-9.9,22.1-22.1
		C276.4,39.7,266.4,29.8,254.2,29.8z"/>
	<g>
		<linearGradient id="SVGID_1_" gradientUnits="userSpaceOnUse" x1="242.1935" y1="70.4973" x2="242.1935" y2="70.4973">
			<stop  offset="0" style="stop-color:#EB9317"/>
			<stop  offset="1" style="stop-color:#EB9317;stop-opacity:0.6"/>
		</linearGradient>
		<path class="st2" d="M242.2,70.5"/>
		
			<linearGradient id="SVGID_00000057147471677854480520000015126916727951265926_" gradientUnits="userSpaceOnUse" x1="194.9378" y1="51.9064" x2="249.514" y2="51.9064">
			<stop  offset="0" style="stop-color:#EB9317"/>
			<stop  offset="1" style="stop-color:#EB9317;stop-opacity:0.6"/>
		</linearGradient>
		<path style="fill:url(#SVGID_00000057147471677854480520000015126916727951265926_);" d="M232.1,51.9c0-7.8,4-14.6,10.1-18.6
			c-5-5.3-12.1-8.7-20-8.7c-15.1,0-27.3,12.2-27.3,27.3s12.2,27.3,27.3,27.3c7.9,0,15-3.3,20-8.7C236.1,66.6,232.1,59.7,232.1,51.9z
			"/>
		
			<linearGradient id="SVGID_00000034075528119887823870000014882246482606054050_" gradientUnits="userSpaceOnUse" x1="194.9378" y1="51.9061" x2="249.514" y2="51.9061">
			<stop  offset="0" style="stop-color:#EB9317"/>
			<stop  offset="1" style="stop-color:#EB9317;stop-opacity:0.6"/>
		</linearGradient>
		<path style="fill:url(#SVGID_00000034075528119887823870000014882246482606054050_);" d="M247.2,40.8c-3.7,2.3-6.1,6.4-6.1,11.1
			c0,4.7,2.4,8.7,6.1,11.1c1.5-3.4,2.3-7.1,2.3-11.1C249.5,48,248.7,44.2,247.2,40.8z"/>
	</g>
	<rect x="94.7" y="30" class="st1" width="11" height="44.3"/>
	<path class="st1" d="M167.7,30.4c-3.9,0-7.5,1.1-10.7,3V20.1h-11v54.3h11v-2.8c3.2,1.9,6.9,3,10.7,3c11.7,0,21.7-9.9,21.7-22.1
		C189.4,40.3,179.4,30.4,167.7,30.4z M167.7,64.3c-5.6,0-10-3.8-10.7-10v-3.6c0.7-6.1,5.1-10,10.7-10c6.1,0,10.8,4.6,10.8,11.8
		C178.6,59.7,173.9,64.3,167.7,64.3z"/>
	<path class="st1" d="M130,20v10.5h9.5v10H130v18.1c0,3.8,2.4,6.2,6.2,6.2c1,0,1.6-0.1,2.1-0.2l0.8-0.3v9.5c-0.5,0.2-1,0.4-1.5,0.5
		c-1,0.3-2.3,0.5-3.7,0.5c-8.7,0-14.8-6.2-14.8-15.7V40.5h-6.7v-10h8.1V20H130L130,20z"/>
	<path class="st1" d="M336.8,20.3v10.5h9.5v10h-9.5v18.1c0,3.8,2.4,6.2,6.2,6.2c1,0,1.6-0.1,2.1-0.2l0.8-0.3v9.5
		c-0.5,0.2-1,0.4-1.5,0.5c-1,0.3-2.3,0.5-3.7,0.5c-8.7,0-14.8-6.2-14.8-15.7V40.8h-6.7v-10h8.1V20.3H336.8L336.8,20.3z"/>
	<polygon class="st1" points="77.6,30.5 69.2,56.9 60.9,30.5 60.8,30.5 49.9,30.5 49.9,30.5 41.5,56.9 33.2,30.5 22.2,30.5 
		36.1,74.3 47,74.3 55.4,47.8 63.8,74.3 74.6,74.3 88.5,30.5 	"/>
	<path class="st1" d="M292.1,60.6c0.5,3,2.9,5.3,6.8,5.3c3.9,0,6.3-2.4,6.3-4.8c0-6.3-22.7-2.5-22.7-17.9c0-7.2,6.3-13.5,15.9-13.5
		c10.7,0,16.3,5.8,17.4,13.5h-10.6c-0.5-1.9-2.9-4.3-6.3-4.3c-3.4,0-5.3,1.9-5.3,4.3c0,6.2,22.7,2.5,22.7,18.3
		c0,7.2-6.4,13.5-16.4,13.5c-11.6,0-17.5-5.7-18.3-14.5H292.1z"/>
</g>
</svg>
