<svg xmlns="http://www.w3.org/2000/svg" xml:space="preserve" id="Livello_1" x="0" y="0" style="enable-background:new 0 0 845 200" version="1.1" viewBox="0 0 845 200"><style>.st0{fill:#ee961a}</style><switch><g><path d="M218.46 64.41h24.1v97.44h-24.1zM379.16 65.21c-8.49 0-16.55 2.42-23.57 6.57v-29.1h-24.1v119.44h24.1v-6.05c7.02 4.15 15.08 6.57 23.57 6.57 25.7 0 47.67-21.76 47.67-48.71s-21.97-48.72-47.67-48.72zm0 74.62c-12.29 0-21.97-8.47-23.57-21.91v-7.99c1.61-13.45 11.29-21.92 23.57-21.92 13.48 0 23.84 10.16 23.84 25.91-.01 15.75-10.37 25.91-23.84 25.91zM296.04 42.41v23.05H317v22h-20.95v39.81c0 8.39 5.24 13.62 13.62 13.62 2.31 0 3.56-.21 4.61-.42l1.68-.63v20.95c-1.04.42-2.09.84-3.35 1.05-2.31.63-5.03 1.05-8.17 1.05-19.07 0-32.48-13.62-32.48-34.58V87.46h-14.67v-22h17.8V42.41h20.95zM768.08 42.41v23.05h20.95v22h-20.95v39.81c0 8.39 5.24 13.62 13.62 13.62 2.31 0 3.56-.21 4.61-.42l1.68-.63v20.95c-1.04.42-2.09.84-3.35 1.05-2.31.63-5.03 1.05-8.17 1.05-19.07 0-32.48-13.62-32.48-34.58V87.46h-14.67v-22h17.8V42.41h20.96zM180.74 65.46l-18.37 58-18.37-58H119.85l-18.37 58-18.37-58H58.97l30.53 96.39h23.96l18.47-58.29 18.46 58.29h23.96l30.53-96.39zM532.87 113.68c0 27.61-22.51 49.91-48.85 49.91s-48.85-22.3-48.85-49.91c0-27.61 22.51-49.91 48.85-49.91s48.85 22.29 48.85 49.91zm-73.27 0c0 16.14 10.62 26.55 24.43 26.55s24.43-10.41 24.43-26.55-10.62-26.55-24.43-26.55-24.43 10.41-24.43 26.55zM638.79 113.68c0 27.61-22.51 49.91-48.85 49.91s-48.85-22.3-48.85-49.91c0-27.61 22.51-49.91 48.85-49.91s48.85 22.29 48.85 49.91zm-73.27 0c0 16.14 10.62 26.55 24.43 26.55s24.43-10.41 24.43-26.55-10.62-26.55-24.43-26.55-24.43 10.41-24.43 26.55zM669.76 131.73c1.06 6.59 6.37 11.68 14.87 11.68s13.81-5.31 13.81-10.62c0-13.81-49.91-5.52-49.91-39.29 0-15.93 13.81-29.74 35.04-29.74 23.58 0 35.9 12.74 38.23 29.74h-23.36c-1.06-4.25-6.37-9.56-13.81-9.56-7.43 0-11.68 4.25-11.68 9.56 0 13.59 49.91 5.52 49.91 40.36 0 15.93-14.02 29.74-36.11 29.74-25.49 0-38.44-12.53-40.36-31.86h23.37z" class="st0"/></g></switch></svg>